<?xml version="1.0" standalone="no"?>
<!DOCTYPE svg PUBLIC "-//W3C//DTD SVG 20010904//EN"
 "http://www.w3.org/TR/2001/REC-SVG-20010904/DTD/svg10.dtd">
<svg version="1.0" xmlns="http://www.w3.org/2000/svg"
 width="1024.000000pt" height="1024.000000pt" viewBox="0 0 1024.000000 1024.000000"
 preserveAspectRatio="xMidYMid meet">

<g transform="translate(0.000000,1024.000000) scale(0.100000,-0.100000)"
fill="#000000" stroke="none">
<path d="M3100 8671 c-77 -25 -117 -61 -152 -136 -22 -47 -23 -61 -22 -250 0
-174 4 -218 27 -336 45 -233 142 -503 253 -706 l45 -83 -180 -204 c-99 -111
-265 -296 -370 -410 -105 -114 -191 -211 -191 -216 0 -29 308 -219 556 -343
132 -66 292 -135 389 -168 l70 -23 -40 -7 c-22 -5 -157 -8 -300 -9 -299 -1
-375 -9 -464 -50 -84 -40 -211 -165 -245 -241 -65 -147 -61 -311 10 -452 34
-66 132 -162 212 -207 34 -19 69 -39 77 -45 11 -8 21 -101 44 -425 17 -228 44
-597 61 -820 17 -223 44 -587 60 -810 45 -614 48 -647 76 -728 28 -83 81 -191
118 -241 14 -19 23 -38 20 -42 -3 -5 2 -9 10 -9 9 0 24 -12 33 -27 20 -31 72
-83 83 -83 4 0 11 -10 17 -23 6 -12 23 -29 39 -37 16 -8 66 -36 112 -62 79
-45 88 -48 157 -48 41 0 84 -4 97 -9 72 -27 283 -32 983 -21 391 6 964 13
1275 16 455 4 573 8 605 20 30 10 66 42 140 124 55 60 107 110 115 110 12 0
12 2 1 9 -9 6 -10 11 -2 15 13 8 86 121 126 194 15 28 32 52 37 52 4 0 8 12 8
28 0 15 4 42 10 61 23 82 23 77 155 1826 36 479 68 884 70 901 5 26 15 35 77
65 137 64 249 205 279 347 6 33 9 95 6 145 -4 78 -9 99 -46 171 -72 146 -220
262 -362 286 -35 5 -202 10 -371 10 -170 0 -308 4 -308 8 0 11 27 23 155 72
163 63 356 152 507 236 113 62 358 222 358 234 0 4 -75 88 -167 187 -185 198
-547 600 -571 634 -9 13 -11 24 -5 28 5 3 37 67 70 141 183 406 240 622 250
950 7 220 -4 268 -75 339 -59 59 -114 77 -210 67 -267 -27 -790 -257 -1028
-452 -49 -40 -67 -42 -142 -10 -173 73 -361 115 -542 123 -260 11 -484 -26
-691 -113 l-107 -45 -77 56 c-151 108 -410 247 -604 325 -215 85 -448 135
-521 111z m230 -317 c228 -65 447 -175 634 -318 l78 -60 -28 -24 c-16 -12 -45
-36 -64 -52 l-36 -28 -69 45 c-148 94 -423 219 -442 199 -10 -9 23 -202 49
-285 11 -36 40 -117 65 -180 l44 -114 -58 -59 c-68 -69 -60 -73 -130 72 -111
228 -173 508 -173 773 0 60 2 68 18 63 9 -2 60 -17 112 -32z m3490 -46 c0
-146 -36 -367 -86 -538 -26 -86 -149 -350 -164 -350 -12 0 -110 110 -110 123
0 6 18 55 40 109 78 189 144 468 111 468 -49 0 -299 -115 -424 -196 -37 -24
-73 -44 -80 -44 -7 0 -38 21 -70 48 l-59 47 44 38 c103 91 289 199 473 277 95
39 259 89 298 89 l27 1 0 -72z m-2315 -913 c117 -40 232 -134 306 -249 47 -71
84 -167 146 -370 25 -86 49 -156 53 -156 4 0 22 48 40 108 62 206 81 258 131
359 42 86 61 112 128 175 127 122 245 164 431 155 181 -9 324 -70 495 -211 98
-81 846 -827 839 -837 -5 -8 -277 -124 -311 -132 -14 -3 -34 4 -54 19 -17 12
-199 186 -403 386 -205 200 -398 381 -430 403 -58 40 -59 40 -168 43 -102 4
-113 2 -163 -23 -103 -50 -162 -130 -250 -334 -19 -46 -35 -91 -35 -101 0 -17
45 -60 499 -476 l185 -169 -71 -6 c-126 -12 -190 -40 -297 -134 l-74 -65 -504
0 -504 0 -38 46 c-70 83 -183 139 -309 152 l-69 7 288 267 c159 146 313 290
342 320 l52 54 -20 59 c-40 118 -120 266 -169 315 -82 82 -219 117 -340 86
-35 -9 -77 -26 -95 -38 -17 -12 -214 -203 -437 -425 l-405 -403 -145 59 c-186
76 -200 83 -196 94 5 16 600 627 707 726 192 179 327 263 482 302 94 24 287
21 363 -6z m-130 -579 c63 -27 94 -114 62 -176 -17 -34 -74 -70 -111 -70 -43
0 -76 19 -103 59 -41 61 -23 143 40 181 38 24 66 25 112 6z m1369 0 c49 -20
76 -64 76 -123 -1 -52 -14 -76 -57 -105 -59 -38 -145 -10 -178 58 -32 67 -1
148 66 171 45 16 54 16 93 -1z m-2120 -1332 l46 -7 0 -67 c0 -98 23 -155 90
-222 45 -45 69 -60 115 -74 77 -22 159 -15 221 20 l47 26 63 -25 c34 -14 77
-25 96 -25 80 0 188 83 229 174 15 36 20 68 28 184 1 9 97 12 445 12 l443 0 5
-73 c10 -161 109 -277 248 -294 38 -4 59 0 105 21 l57 26 46 -27 c42 -25 56
-28 138 -27 80 0 97 4 136 27 98 57 149 144 156 265 l5 82 391 0 c358 0 394
-2 432 -19 81 -37 145 -147 130 -223 -11 -53 -57 -110 -114 -141 -40 -22 -70
-29 -137 -34 -47 -3 -88 -9 -90 -13 -6 -10 -88 -1040 -165 -2085 -59 -792 -60
-806 -81 -868 -46 -136 -145 -248 -277 -314 -68 -34 -80 -37 -205 -44 -169
-10 -2246 -10 -2434 0 -137 7 -145 9 -220 46 -98 48 -194 142 -241 235 -38 77
-54 171 -77 465 -9 110 -22 282 -30 383 -13 157 -131 1792 -151 2088 l-6 101
-83 5 c-154 10 -242 75 -253 187 -5 61 11 112 51 157 42 49 81 67 162 74 92 9
619 12 679 4z m-259 -3934 c3 -5 1 -10 -4 -10 -6 0 -11 5 -11 10 0 6 2 10 4
10 3 0 8 -4 11 -10z"/>
<path d="M4848 6344 c-10 -3 -21 -16 -24 -28 -11 -44 67 -196 100 -196 18 0
26 -23 26 -76 0 -41 -2 -44 -27 -44 -42 1 -103 32 -151 78 -49 47 -70 52 -97
22 -15 -16 -16 -25 -7 -44 18 -39 69 -92 125 -128 55 -35 45 -33 268 -39 88
-3 173 36 242 110 49 53 57 79 31 105 -25 25 -43 19 -101 -34 -78 -71 -157
-91 -168 -42 -8 37 8 78 37 93 30 16 42 32 78 101 59 113 46 122 -159 125 -86
1 -164 -1 -173 -3z"/>
<path d="M4355 4710 c-122 -18 -258 -127 -290 -232 -21 -73 -20 -265 10 -898
13 -294 29 -663 35 -820 14 -366 22 -437 57 -501 31 -58 65 -89 137 -127 44
-23 63 -27 141 -27 76 0 99 4 145 26 71 33 123 79 158 138 l27 46 0 1075 0
1075 -27 50 c-35 63 -52 83 -111 128 -72 55 -184 81 -282 67z"/>
<path d="M5550 4709 c-120 -17 -213 -83 -275 -194 l-35 -62 0 -979 c1 -973 6
-1158 34 -1211 22 -43 85 -99 146 -129 49 -25 66 -28 155 -28 112 -1 143 11
223 79 50 43 79 95 92 165 5 28 19 267 30 533 11 265 27 642 35 837 8 195 16
438 18 540 2 173 1 188 -20 233 -73 157 -230 241 -403 216z"/>
<path d="M3410 4608 c-19 -13 -43 -39 -53 -58 -22 -42 -21 -59 28 -715 19
-247 48 -646 65 -885 34 -486 45 -591 66 -631 19 -37 68 -62 122 -62 50 0 84
21 125 80 l28 39 -36 510 c-20 280 -42 583 -50 674 -7 91 -26 338 -40 550 -28
417 -35 454 -87 492 -47 33 -124 36 -168 6z"/>
<path d="M6460 4612 c-20 -10 -42 -32 -52 -52 -19 -39 -39 -211 -63 -540 -38
-530 -115 -1529 -120 -1567 -9 -60 10 -117 51 -157 46 -44 91 -53 147 -28 75
33 88 63 103 231 11 124 133 1685 151 1927 5 72 3 86 -17 121 -41 74 -127 102
-200 65z"/>
<path d="M7 6864 c-4 -4 -7 -48 -6 -98 1 -75 2 -85 10 -58 11 38 8 168 -4 156z"/>
<path d="M0 6520 c0 -16 5 -30 10 -30 6 0 10 14 10 30 0 17 -4 30 -10 30 -5 0
-10 -13 -10 -30z"/>
</g>
</svg>
