<?xml version="1.0" standalone="no"?>
<!DOCTYPE svg PUBLIC "-//W3C//DTD SVG 20010904//EN"
 "http://www.w3.org/TR/2001/REC-SVG-20010904/DTD/svg10.dtd">
<svg version="1.0" xmlns="http://www.w3.org/2000/svg"
 width="1024.000000pt" height="1024.000000pt" viewBox="0 0 1024.000000 1024.000000"
 preserveAspectRatio="xMidYMid meet">

<g transform="translate(0.000000,1024.000000) scale(0.100000,-0.100000)"
fill="#000000" stroke="none">
<path d="M3113 8689 c-74 -29 -119 -79 -145 -163 -19 -63 -20 -84 -15 -245 13
-371 92 -662 282 -1040 l56 -113 -24 -27 c-13 -14 -93 -105 -177 -201 -84 -96
-235 -262 -334 -369 -228 -244 -232 -249 -219 -270 14 -24 169 -128 313 -210
205 -118 426 -223 625 -296 49 -18 91 -37 93 -43 2 -7 -112 -12 -335 -15 -190
-3 -360 -10 -387 -16 -75 -17 -186 -76 -239 -127 -58 -56 -111 -134 -137 -203
-39 -102 -36 -303 6 -368 14 -22 20 -23 160 -23 143 0 184 8 184 34 0 7 -10
21 -21 32 -52 46 -75 158 -45 227 18 44 96 113 143 127 26 7 163 10 432 8
l395 -3 -3 -65 c-8 -237 230 -397 438 -294 l61 31 50 -25 c176 -87 370 65 370
288 l0 70 470 0 470 0 0 -82 c0 -100 25 -161 91 -225 82 -79 186 -98 276 -51
l48 25 57 -29 c153 -78 326 -22 405 131 30 56 33 71 33 147 l0 84 413 0 c377
0 415 -2 452 -19 44 -20 110 -87 125 -127 25 -64 1 -175 -44 -213 -22 -18 -20
-48 3 -61 29 -15 296 -13 308 3 21 26 35 85 40 172 6 101 -10 183 -54 269 -38
76 -154 186 -236 225 -115 55 -166 61 -525 61 -253 0 -323 3 -320 12 3 7 45
27 94 45 49 18 125 47 169 64 113 44 432 205 545 274 126 78 250 166 250 179
0 5 -37 48 -83 95 -167 174 -687 751 -687 763 0 5 33 77 74 161 176 365 266
721 266 1062 0 180 -37 273 -128 319 -68 35 -111 40 -202 26 -90 -14 -396
-116 -537 -178 -169 -76 -337 -176 -491 -294 -67 -51 -72 -53 -88 -39 -18 17
-190 80 -299 110 -338 91 -745 64 -1050 -70 -50 -21 -95 -39 -102 -39 -6 0
-83 48 -170 107 -264 178 -656 348 -920 399 -96 18 -117 17 -180 -7z m262
-314 c229 -65 491 -197 658 -331 58 -48 84 -84 59 -84 -4 0 -31 -21 -60 -46
l-53 -46 -107 65 c-153 93 -372 197 -414 197 -33 0 28 -297 93 -451 17 -41 38
-93 47 -116 l17 -43 -60 -60 c-33 -33 -62 -60 -65 -60 -12 0 -88 147 -124 238
-53 133 -84 241 -106 371 -21 119 -37 357 -27 385 7 18 13 18 142 -19z m3618
-90 c-5 -271 -66 -523 -185 -760 -52 -104 -65 -125 -78 -125 -5 0 -34 29 -65
64 l-56 65 45 103 c78 180 151 467 125 492 -22 22 -283 -99 -466 -216 l-62
-40 -60 49 c-34 26 -61 55 -61 64 0 40 235 197 427 285 161 73 382 147 423
141 13 -2 15 -22 13 -122z m-2444 -897 c158 -39 311 -163 390 -318 39 -74 81
-197 126 -365 21 -77 41 -143 44 -147 4 -4 32 79 64 185 96 322 182 468 337
570 182 121 439 123 668 8 102 -52 189 -116 338 -251 135 -124 744 -743 744
-757 0 -5 -79 -42 -176 -82 l-177 -73 -66 64 c-36 34 -230 226 -431 424 -222
221 -381 369 -405 382 -104 51 -230 54 -331 8 -70 -32 -114 -71 -164 -148 -35
-53 -140 -284 -140 -307 0 -15 45 -57 409 -389 l303 -277 -93 -12 c-125 -17
-219 -62 -297 -144 l-57 -59 -528 0 -528 0 -54 58 c-82 89 -180 135 -318 150
l-60 7 105 95 c57 52 214 196 349 319 134 123 248 228 253 232 10 9 -73 220
-119 304 -33 59 -95 126 -146 157 -101 63 -277 61 -382 -2 -18 -11 -222 -210
-454 -442 l-422 -422 -98 39 c-54 21 -136 56 -182 77 l-85 39 65 67 c281 291
356 369 519 533 291 292 422 391 597 451 136 47 279 56 402 26z m-63 -629 c53
-50 66 -101 40 -164 -20 -47 -69 -75 -130 -75 -43 0 -53 4 -87 39 -36 35 -39
43 -39 93 0 60 15 89 64 119 42 27 117 21 152 -12z m1400 15 c52 -25 74 -62
74 -127 0 -51 -3 -57 -40 -91 -34 -30 -47 -36 -86 -36 -60 0 -100 24 -125 78
-26 52 -20 98 18 143 43 51 97 62 159 33z"/>
<path d="M4932 6278 c-20 -20 -13 -70 21 -138 24 -48 40 -69 65 -80 32 -15 32
-16 30 -75 l-3 -60 -35 3 c-50 5 -103 35 -142 82 -41 48 -79 53 -103 16 -15
-22 -15 -28 -2 -53 23 -43 96 -111 147 -136 41 -20 60 -22 200 -22 149 0 157
1 207 28 54 28 120 90 143 132 17 31 1 70 -31 78 -17 5 -34 -6 -78 -47 -57
-54 -93 -73 -146 -78 -29 -3 -30 -2 -33 48 -3 51 -2 52 35 70 31 16 45 33 75
94 40 80 44 100 28 131 -10 18 -23 19 -188 19 -125 0 -182 -4 -190 -12z"/>
</g>
</svg>
