<?xml version="1.0" standalone="no"?>
<!DOCTYPE svg PUBLIC "-//W3C//DTD SVG 20010904//EN" "http://www.w3.org/TR/2001/REC-SVG-20010904/DTD/svg10.dtd">
<!-- Created using Krita: https://krita.org -->
<svg xmlns="http://www.w3.org/2000/svg" 
    xmlns:xlink="http://www.w3.org/1999/xlink"
    xmlns:krita="http://krita.org/namespaces/svg/krita"
    xmlns:sodipodi="http://sodipodi.sourceforge.net/DTD/sodipodi-0.dtd"
    width="240pt"
    height="240pt"
    viewBox="0 0 240 240">
<defs/>
<path id="shape0" transform="translate(14.3683299500216, 56.8799980270487)" fill="#ffffff" fill-rule="evenodd" stroke="#000000" stroke-width="1.92" stroke-linecap="square" stroke-linejoin="bevel" d="M31.5897 13.4454C23.2076 9.45 17.2014 11.8484 6.44338 1.45929C5.55879 1.03764 4.6742 0.616003 3.78961 0.194361C1.04393 2.00963 0.0714995 4.08136 0.872324 6.40955C2.07356 9.90182 7.14075 14.1457 7.14075 16.8775C7.14075 19.6093 4.99779 25.2819 1.21553 29.3167C-1.30597 32.0066 0.0954769 34.4384 5.41986 36.6121C6.33509 38.6492 6.90872 41.1947 7.14075 44.2485C7.37277 47.3023 5.3405 49.7906 1.04393 51.7133C0.935963 56.3167 2.96823 60.2064 7.14075 63.3825C13.3995 68.1466 1.90196 70.3601 0.700719 77.8541C-0.100106 82.85 2.04657 86.0858 7.14075 87.5615C6.64429 85.6899 6.64429 85.6899 7.14075 87.5615C7.88543 90.369 -4.79065 95.9875 2.58838 105.254C9.96741 114.521 19.6112 93.585 32.7909 93.2418C41.5774 93.013 89.2264 93.3562 175.738 94.2715L205.769 104.911C209.201 104.675 210.002 102.127 208.172 97.269C206.341 92.4105 204.047 89.9813 201.29 89.9813C200.958 88.7229 201.536 87.064 203.023 85.0048C204.511 82.9455 206.055 81.1723 207.657 79.685C209.884 75.1688 207.762 71.3227 201.29 68.1466C191.583 63.3825 207.405 59.264 209.201 53.0862C210.997 46.9084 207.279 51.5417 201.29 43.6479C195.301 35.7541 208.332 33.9543 210.997 31.6355C213.663 29.3167 195.266 23.0275 201.29 19.6093C207.314 16.191 215.053 -2.0739 208.172 0.194361C203.584 1.70654 192.716 5.83753 175.567 12.5873C175.567 12.5873 127.574 12.8733 31.5897 13.4454Z"/><path id="shape1" transform="translate(48, 74.3310652282874)" fill="none" stroke="#000000" stroke-width="1.92" stroke-linecap="square" stroke-linejoin="miter" stroke-miterlimit="2" d="M0 0L7.10543e-15 71.3967"/><path id="shape2" transform="translate(187.2, 74.6704764850376)" fill="none" stroke="#000000" stroke-width="1.92" stroke-linecap="square" stroke-linejoin="miter" stroke-miterlimit="2" d="M0 0L0 69.6931"/>
</svg>
