<svg xmlns="http://www.w3.org/2000/svg" width="128" height="128" viewBox="0 0 128 128">
  <title>SCALE</title>
  <g>
    <path d="M95.475,57.25H85.75V46.75h3.208a19.48,19.48,0,0,0,19.458-19.458V20.417h4.146a1.75,1.75,0,0,0,0-3.5H15.438a1.75,1.75,0,0,0,0,3.5h4.145v6.875A19.481,19.481,0,0,0,39.042,46.75H42.25v10.5H32.525A21.5,21.5,0,0,0,11.05,78.725v26.9a5.46,5.46,0,0,0,5.454,5.454H111.5a5.46,5.46,0,0,0,5.454-5.454v-26.9A21.5,21.5,0,0,0,95.475,57.25ZM23.083,27.292V20.417h81.833v6.875A15.976,15.976,0,0,1,88.958,43.25H39.042A15.977,15.977,0,0,1,23.083,27.292ZM45.75,46.75h36.5v10.5H45.75Zm67.7,58.879a1.956,1.956,0,0,1-1.954,1.954H16.5a1.956,1.956,0,0,1-1.954-1.954v-26.9A18,18,0,0,1,32.525,60.75h62.95A18,18,0,0,1,113.45,78.725Z"/>
    <path d="M64,69.228A22.65,22.65,0,0,0,41.375,91.852V95.9a1.751,1.751,0,0,0,1.75,1.75h41.75a1.751,1.751,0,0,0,1.75-1.75V91.852A22.65,22.65,0,0,0,64,69.228Zm19.125,24.92H65.75V86a1.75,1.75,0,0,0-3.5,0v8.148H44.875v-2.3a19.125,19.125,0,0,1,38.25,0Z"/>
  </g>
</svg>
